<?xml version="1.0" encoding="utf-8"?>
<svg width="800px" height="600px"
     xmlns="http://www.w3.org/2000/svg"
     xmlns:xhtml="http://www.w3.org/1999/xhtml"
     xmlns:xlink="http://www.w3.org/1999/xlink"
     xmlns:a="http://www.adobe.com/svg10-extensions" a:timeline="independent"
    xmlns:dc="http://purl.org/dc/elements/1.1/"
    xmlns:cc="http://creativecommons.org/ns#"
    xmlns:rdf="http://www.w3.org/1999/02/22-rdf-syntax-ns#"
    xmlns:svg="http://www.w3.org/2000/svg"
    xmlns:sodipodi="http://sodipodi.sourceforge.net/DTD/sodipodi-0.dtd"
    xmlns:inkscape="http://www.inkscape.org/namespaces/inkscape"
    id="svg2"
    sodipodi:version="0.32"
    inkscape:version="0.46+devel"
    version="1.0"
    sodipodi:docname="sf_stormtrooper.svg"
    inkscape:output_extension="org.inkscape.output.svg.inkscape"
    onload="top.load(evt)">

  <defs>
    <clipPath id="gameareaclip">
      <rect x="20" y="20" width="600" height="560"/>
    </clipPath>
    <pattern id="background_pattern" x="0" y="0" width="20" height="20" patternUnits="userSpaceOnUse">
      <rect width="20" height="20" style="fill:yellow"/>
      <circle cx="10" cy="10" r="8" style="fill:lightyellow"/>
    </pattern>
    <radialGradient id="player_color">
      <stop offset="0.0" style="stop-color:yellow;stop-opacity:1"/>
      <stop offset="0.8" style="stop-color:yellow;stop-opacity:1"/>
      <stop offset="1.0" style="stop-color:orange;stop-opacity:1"/>
    </radialGradient>
    <g id="monster">
    <g transform="scale(0.5, 0.5) translate(-255, -70) ">
      <path
         style="fill:#1a1a1a;fill-opacity:1;stroke:none"
         d="m 248.69726,58.664539 c 1.47549,5.737386 -7.68546,8.341178 -10.32751,13.770021 l -6.88501,2.458933 -6.39323,2.213039 c -0.52602,-2.213039 -2.97396,-2.213039 -6.63911,-4.426078 -1.1881,2.622861 0.78668,2.583084 1.96714,5.901437 -2.58535,1.031535 -5.80053,-0.05441 -8.86451,1.721253 0.98471,2.824872 2.99203,0.94637 5.42201,2.213039 -2.44082,1.191751 -6.5017,2.614938 -4.67198,3.196612 2.87132,1.644407 6.54845,-0.837342 7.64017,-1.013405 -1.01011,2.157909 -4.66003,4.163085 -4.93534,5.19359 4.36045,-1.139594 6.19266,-0.291686 7.62269,-3.442505 3.58893,-0.12252 5.63534,-0.715196 8.60626,-5.163758 l 11.80288,-5.163758 c 5.17563,-0.202447 9.48445,-5.707398 8.11448,-7.868584 l -2.45894,-9.589836 z"
         id="path3107" />
      <path
         id="path3103"
         d="m 247.02711,111.23458 -4.67197,-8.85215 3.19661,-8.360372 2.95072,-9.589836 1.22947,-5.409651 20.90092,-1.721253 5.65555,8.36037 -4.91787,11.556982 0.49179,11.80288 -2.45893,9.09805 -4.42608,-1.47536 -1.72125,-11.80288 -0.49179,-7.130903 1.72125,-4.671972 -1.47536,-0.983573 -3.19661,-0.491786 -5.65554,2.213039 -3.93429,7.622695 -0.49179,13.03234 -2.70483,-3.19662 z"
         style="fill:#1a1a1a;fill-opacity:1;stroke:none" />
      <path
         style="fill:#f2f2f2;fill-opacity:1;stroke:#333333;stroke-width:1;stroke-linejoin:round;stroke-miterlimit:4;stroke-opacity:1;stroke-dasharray:none;stroke-dashoffset:0"
         d="m 248.60369,54.913503 c 3.19959,-1.318236 6.43755,-2.761435 7.19153,3.885093 l -8.20504,17.662524 c -2.67088,-4.550214 -4.47384,-7.309064 -7.92868,-7.780876 l 8.94219,-13.766741 z"
         id="path3097"/>
      <path
         id="path3073"
         d="m 254.41469,52.720209 18.06982,-1.368926 c 10.68069,15.522453 6.57084,27.92608 2.73784,38.056128 -7.23039,-2.028654 -10.71194,0.227068 -12.85891,4.008034 l -4.10453,-0.02469 c -3.38043,-5.086593 -6.76086,-6.445217 -10.14128,-6.447414 -0.0596,0.139196 -2.99777,-28.688514 6.29706,-34.223136 z"
         style="fill:#f2f2f2;fill-opacity:1;stroke:#333333;stroke-width:1" />
      <path
         id="path3075"
         d="m 246.47492,77.087081 c 9.41096,6.523608 25.65947,2.067479 32.58043,0 l -0.27378,6.297058 c -12.12424,3.74258 -25.79033,2.908128 -32.30664,-0.54757 l -1e-5,-5.749488 z"
         style="fill:#f2f2f2;fill-opacity:1;stroke:#333333;stroke-width:1;stroke-linejoin:round;stroke-miterlimit:4;stroke-opacity:1;stroke-dasharray:none;stroke-dashoffset:0" />
      <path
         id="path3077"
         d="m 263.99717,92.692831 -1.64271,7.939769 c 3.49144,-0.52681 6.96993,-1.014747 9.03491,2.73785 l 2.19028,-12.594113 c -2.63242,-1.555419 -5.52608,-1.512023 -9.58248,1.916494 z"
         style="fill:#f2f2f2;fill-opacity:1;stroke:#333333;stroke-width:1;stroke-linejoin:round;stroke-miterlimit:4;stroke-opacity:1;stroke-dasharray:none;stroke-dashoffset:0" />
      <path
         inkscape:transform-center-y="3.4908893"
         inkscape:transform-center-x="-15.749093"
         style="fill:#f2f2f2;fill-opacity:1;stroke:#333333;stroke-width:1;stroke-linejoin:round;stroke-miterlimit:4;stroke-opacity:1;stroke-dasharray:none;stroke-dashoffset:0"
         d="m 245.97458,89.943219 -3.11291,8.581678 c 3.52811,0.14219 7.58371,0.0463 8.90268,4.121403 l 4.25601,-10.310934 c -2.29122,-2.024664 -5.41477,-4.99271 -10.04578,-2.392147 z"
         id="path3079"/>
      <path
         id="path3081"
         d="m 263.17582,103.09666 c 0,0 2.73784,-3.559206 6.29705,-0.82135 2.18091,1.67762 3.01164,8.21355 3.01164,8.21355 -2.88278,0.21466 -5.2311,-1.70851 -8.76113,1.09514 l -0.54756,-8.48734 z"
         style="fill:#f2f2f2;fill-opacity:1;stroke:#333333;stroke-width:1;stroke-linejoin:round;stroke-miterlimit:4;stroke-opacity:1;stroke-dasharray:none;stroke-dashoffset:0" />
      <path
         style="fill:#f2f2f2;fill-opacity:1;stroke:#333333;stroke-width:1;stroke-linejoin:round;stroke-miterlimit:4;stroke-opacity:1;stroke-dasharray:none;stroke-dashoffset:0"
         d="m 243.26347,100.45872 c 0,0 6.84462,-1.368924 8.21354,3.28543 0.77639,2.6397 1.91651,5.74948 1.91651,5.74948 -2.88279,0.21467 -5.23111,-1.7085 -8.76113,1.09514 l -1.36892,-10.13005 z"
         id="path3083"/>
      <path
         id="path3085"
         d="m 251.40306,110.48886 c -1.78996,-0.68868 -3.52633,-1.59172 -6.02327,0.54757 -4.84321,2.52369 -10.29067,2.43671 -14.51062,7.66599 l 0.54757,2.73785 c 9.88153,3.46233 15.77818,0.61523 21.35524,-2.73786 l -1.36892,-8.21355 z"
         style="fill:#f2f2f2;fill-opacity:1;stroke:#333333;stroke-width:1;stroke-linejoin:round;stroke-miterlimit:4;stroke-opacity:1;stroke-dasharray:none;stroke-dashoffset:0" />
      <path
         style="fill:#f2f2f2;fill-opacity:1;stroke:#333333;stroke-width:1;stroke-linejoin:round;stroke-miterlimit:4;stroke-opacity:1;stroke-dasharray:none;stroke-dashoffset:0"
         d="m 270.97869,111.31021 c -1.78996,-0.68868 -3.52633,-1.59171 -6.02327,0.54758 -4.84321,2.52368 -10.29068,2.4367 -14.51062,7.66598 l 0.54757,2.73785 c 9.88153,3.46233 15.77818,0.61523 21.35524,-2.73786 l -1.36892,-8.21355 z"
         id="path3087" />
      <path
         id="path3157"
         d="m 261.07969,73.749962 c -1.03858,-0.09847 -29.28891,10.496673 -29.28891,10.496673 -0.99343,2.421659 -1.74485,4.801345 2.36824,6.337373 l 29.98872,-12.351499 c 0.47308,-1.973915 -0.18697,-3.584404 -3.06805,-4.482547 z"
         style="fill:#000000;fill-opacity:1;stroke:none" />
      <path
         id="path3159"
         d="m 252.74847,84.169218 3.99907,10.08462 4.69456,-2.608091 -4.17294,-10.084621 6.08555,-2.260346 -1.73873,-2.260346 -22.4296,9.910748 0.86938,2.608091 12.69271,-5.390055 z"
         style="fill:#333333;fill-opacity:1;stroke:#1a1a1a;stroke-width:1" />
      <path
         style="fill:#f2f2f2;fill-opacity:1;stroke:#333333;stroke-width:1;stroke-linejoin:round;stroke-miterlimit:4;stroke-opacity:1;stroke-dasharray:none;stroke-dashoffset:0"
         d="m 237.02564,72.599197 c 6.18102,-2.53278 6.28629,1.118464 8.21583,4.796613 l -16.22329,7.619255 c 0.0252,-4.055984 -0.3474,-7.653429 -3.16927,-8.42836 l 11.17673,-3.987508 z"
         id="path3099"/>
      <path
         id="path3165"
         d="m 255.87818,72.693615 -24.8638,8.345893 2.78196,6.085547 c 0,0 2.43422,0.521618 1.56485,-0.695491 -0.86936,-1.21711 -2.08647,-4.694564 -2.08647,-4.694564 l 22.77733,-7.824276 -0.17387,-1.217109 z"
         style="fill:#000000;fill-opacity:1;stroke:none" />
      <path
         id="path3161"
         d="m 251.00974,73.215233 4.86844,7.650402 4.34682,-1.912601 -3.99907,-8.172019 -5.21619,2.434218 z"
         style="fill:#333333;fill-opacity:1;stroke:#1a1a1a;stroke-width:1;stroke-linejoin:round;stroke-miterlimit:4;stroke-opacity:1;stroke-dasharray:none;stroke-dashoffset:0" />
      <path
         id="path3105"
         d="m 272.8459,57.138073 c 1.47549,5.737386 3.62563,10.80011 4.42608,17.212527 l -8.36037,4.671971 -5.40965,3.196612 c -0.52602,-2.213039 -0.51503,-4.426078 -4.18018,-6.639117 -1.1881,2.622861 0.4091,5.245722 2.45893,7.868583 -3.80247,-1.054938 -8.00122,-3.496917 -10.57341,-0.245893 0.86156,3.440637 3.88819,2.551139 6.63912,2.213039 -2.44082,1.191751 -6.5017,2.614938 -4.67198,3.196612 2.87132,1.644407 4.28811,0.379768 5.90144,-0.491786 -2.22722,2.331782 -2.9213,3.641466 -3.19661,4.671971 4.0127,0.07752 5.70088,-2.750619 7.1309,-5.901437 3.58893,-0.12252 7.3566,1.006056 10.32752,-3.442506 l 10.8193,-9.343943 c 2.96259,-3.399059 0.3864,-5.215611 -0.98357,-7.376797 L 272.8459,57.138073 z"
         style="fill:#1a1a1a;fill-opacity:1;stroke:none" />
      <path
         id="path3089"
         d="m 270.63286,54.925034 c 1.07325,-3.289875 2.07632,-6.690039 7.62269,-2.950719 l 8.11448,17.704313 c -5.19526,-0.920495 -8.46433,-1.338929 -11.06519,0.983573 l -4.67198,-15.737167 z"
         style="fill:#f2f2f2;fill-opacity:1;stroke:#333333;stroke-width:1;stroke-linejoin:round;stroke-miterlimit:4;stroke-opacity:1;stroke-dasharray:none;stroke-dashoffset:0" />
      <path
         id="path3091"
         d="m 276.04252,72.87524 c 5.35803,-3.988919 7.48053,-0.924411 9.83572,0.491787 l -14.5077,13.524128 c -0.98317,-3.935102 -2.23784,-7.327191 -5.16375,-7.376798 l 9.83573,-6.639117 z"
         style="fill:#f2f2f2;fill-opacity:1;stroke:#333333;stroke-width:1;stroke-linejoin:round;stroke-miterlimit:4;stroke-opacity:1;stroke-dasharray:none;stroke-dashoffset:0" />
      <path
         id="path3095"
         d="m 260.30535,81.23561 6.14733,-0.491786 c 2.24638,0.865208 3.48,2.338076 2.45893,5.163758 l -6.39322,3.442505 c -4.23146,-3.481221 -3.8357,-5.934172 -2.21304,-8.114477 z"
         style="fill:#f2f2f2;fill-opacity:1;stroke:#333333;stroke-width:1;stroke-linejoin:round;stroke-miterlimit:4;stroke-opacity:1;stroke-dasharray:none;stroke-dashoffset:0" />
      <path
         id="path3101"
         d="m 245.83306,32.487288 c 0.4549,-2.386416 0.94469,-15.518371 2.95565,-18.491954 5.18492,-6.4684787 18.31988,-9.9166016 27.49106,-1.713822 6.04293,9.147004 6.0428,17.288611 6.98806,25.587502 0.66307,15.501205 -11.3197,14.519396 -17.82831,20.672782 -1.92191,0.108057 -3.69354,2.087773 -5.9023,-1.377085 -2.06825,-3.973978 -1.24722,-7.889935 -13.40518,-2.780477 -1.81882,1.530387 -3.54435,1.552542 -5.0777,-1.53183 -1.8086,-7.471462 2.19863,-13.774991 4.77872,-20.365116 z"
         style="fill:#f2f2f2;fill-opacity:1;stroke:#333333;stroke-width:1;stroke-linejoin:round;stroke-miterlimit:4;stroke-opacity:1;stroke-dasharray:none;stroke-dashoffset:0" />
      <path
         id="path3111"
         d="m 276.00756,21.492525 c 1.23296,5.561375 -1.53101,8.898098 -2.97044,12.972045 -6.14593,-4.145969 -10.62757,-7.876227 -15.98924,-7.961173 -3.37942,0.478605 -3.80421,-0.338859 -8.31153,2.934932 -1.86984,-1.908923 -1.75582,-4.314415 -0.90324,-6.904771 9.92534,3.819337 20.53419,0.883832 28.17445,-1.041033 z"
         style="fill:#000000;fill-opacity:1;stroke:none" />
      <path
         id="path3113"
         d="m 247.55481,19.067256 c 10.48973,4.608986 24.44622,2.062847 32.18853,-1.01445 l 0.31246,1.719237 c -11.41287,2.919063 -23.40479,6.008947 -33.41565,0.938539 l 0.91466,-1.643326 z"
         style="fill:#800000;fill-opacity:1;stroke:none" />
      <path
         id="path3115"
         d="m 248.38961,53.363391 c 2.88173,-3.144192 3.3555,-8.338412 8.66326,-9.417167 1.78331,3.478564 1.48904,6.445104 1.99245,9.608238 -2.17893,-1.625309 -6.81443,-1.023855 -10.65571,-0.191071 z"
         style="fill:#000000;fill-opacity:1;stroke:none" />
      <path
         transform="matrix(0.98041808,-0.07871541,0.11091717,1.3814982,127.75984,-6.5055952)"
         d="m 114.5513,49.33437 a 2.2097087,1.9445436 0 1 1 -4.41942,0 2.2097087,1.9445436 0 1 1 4.41942,0 z"
         id="path3117"
         style="fill:#000000;fill-opacity:1;stroke:none"/>
      <path
         sodipodi:type="arc"
         style="fill:#000000;fill-opacity:1;stroke:none"
         id="path3119"
         d="m 114.5513,49.33437 a 2.2097087,1.9445436 0 1 1 -4.41942,0 2.2097087,1.9445436 0 1 1 4.41942,0 z"
         transform="matrix(1.1765017,-0.09445849,0.11091717,1.3814982,124.24646,-1.1649789)" />
      <path
         id="path3121"
         d="m 248.60094,40.787299 c 3.72379,-3.850241 3.6015,-3.017414 8.98963,-7.524615 4.29351,3.202074 5.48206,6.653438 8.12807,9.987787 -4.66492,-5.378425 -9.91151,-7.103053 -17.1177,-2.463172 z"
         style="fill:#999999;fill-opacity:1;stroke:none" />
      <path
         id="path3167"
         d="m 233.79634,85.386327 -6.95491,2.608091 1.39098,2.955838 6.08554,-2.434219 -0.52161,-3.12971 z"
         style="fill:#000000;fill-opacity:1;stroke:none" />
      <path
         style="fill:#b3b3b3;fill-opacity:1;stroke:none"
         d="m 248.9041,67.008143 7.35513,1.854669 11.1176,0.693294 -9.23636,-2.707211 0.47774,-7.803135 -2.07022,7.166145 -7.64389,0.796238 z"
         id="path2889"/>
      <path
         style="fill:#ffffff;fill-opacity:1;stroke:none"
         d="m 266.89909,28.151712 c 2.0803,0.644112 3.84499,1.730074 7.96238,-0.477743 l -2.22946,4.618183 -5.73292,-4.14044 z"
         id="path2891"/>
      </g>
    </g>
    <g id="bullet">
      <circle cx="5" cy="5" r="5" style="fill:red"/>
      <circle cx="6" cy="3" r="1" style="fill:pink"/>
    </g>
  </defs>

  <rect width="100%" height="100%" style="fill:url(#background_pattern);stroke:orange;stroke-width:4" />

  <rect x="20" y="20" width="600" height="560" style="fill:black;stroke:red;stroke-width:5" />

  <!-- Zoom button -->
  <g onclick="top.zoomScreen()" transform="translate(640,20)" style="cursor:pointer">
    <rect x="0" y="0" width="140" height="40" style="fill:white;stroke:red;stroke-width:2" />
    <text x="70" y="28" style="fill:red;font-size:25px;text-anchor:middle"> Zoom </text>
  </g>

  <g transform="translate(640, 120)">
    <text x="70" y="0" style="fill:orange;font-size:25px;font-weight:bold;text-anchor:middle">
      Score:
    </text>
    <rect x="0" y="10" width="140" height="35" style="fill:white" />
    <text id="score" x="70" y="36" style="fill:orange;font-size:25px;text-anchor:middle">0</text>
  </g>

  <g style="clip-path:url(#gameareaclip)">
    <g transform="translate(20,20)">
      <g id="gamearea" transform="translate(0,0)" width="600" height="560">
        <rect x="0" y="0" width="600" height="560" style="fill:white" />

        <!-- These SVGs below are added from JS dynamically -->
        <g id="platforms"/>

        <g id="monsters"/>

        <g id="bullets"/>

        <!-- -->

        <g id="startscreen" transform="translate(40,40)">
          <rect width="520" height="480" style="fill:white;stroke:red;stroke-width:2"/>
          <text x="260" y="40" style="fill:red;font-size:30px;font-weight:bold;text-anchor:middle"> Star Wars </text>
          <text x="260" y="80" style="fill:red;font-size:30px;font-weight:bold;text-anchor:middle"> Help R2D2 save the world! </text>
          <text x="260" y="120" style="fill:red;font-size:30px;font-weight:bold;text-anchor:middle">Press N to move left </text>
          <text x="260" y="160" style="fill:red;font-size:30px;font-weight:bold;text-anchor:middle">Press M to move right </text>
          <text x="260" y="200" style="fill:red;font-size:30px;font-weight:bold;text-anchor:middle">Press Z to jump </text>
          <text x="260" y="240" style="fill:red;font-size:30px;font-weight:bold;text-anchor:middle">Press space to shoot </text>
          <text x="260" y="280" style="fill:red;font-size:30px;font-weight:bold;text-anchor:middle">Press C for cheat mode </text>
          <text x="260" y="360" style="fill:red;font-size:30px;font-weight:bold;text-anchor:middle">by KURNIASARI, Andrea Juliati </text>
          <g onclick="top.startGame()">
            <rect class="button" x="50" y="400" width="200" height="50" rx="10" ry="10" style="fill:white;stroke:red;stroke-width:2"/>
            <text x="150" y="440" style="fill:red;font-size:30px;font-weight:bold;text-anchor:middle">Start Game</text>
          </g>
         <!--  <g onclick="top.initializeGame(true)">
            <rect class="button" x="350" y="450" width="200" height="50" rx="10" ry="10" />
            <text x="450" y="480" style="fill:red;font-size:30px;font-weight:bold;text-anchor:middle">Zoom Mode</text>
          </g> -->
        </g>

        <g id="player_name">
          <text id="name_text" x="0" y="0" 
            style="fill:cadetblue;font-size:16px;text-anchor:middle">
          </text>
        </g>

        <g id="player">
          <g transform="matrix(1.0,0,0,-1.0,14,28) scale(0.05,0.04)" id="g1">
            <g id="g2">
            <path d="M-116.44281,-214.86294L-225.79099,-379.94669L53.675414,-427.72112L178.18767,-398.04502L153.57637,-343.01458L308.50777,-368.33859L414.20898,-341.56641L344.72717,-187.34772L301.98721,-186.63501L299.11362,-147.54201L307.79506,-141.02904C307.79506,-141.02904 334.59757,-114.25686 357.01766,-81.646504L314.30803,390.3658L309.24323,432.36271C309.24323,432.36271 317.92466,448.30016 332.40636,462.03882C332.40636,462.03882 345.43988,470.00754 340.37508,486.65012C335.31028,503.33061 319.37283,516.35655 319.37283,516.35655C319.37283,516.35655 315.02074,522.8771 305.63418,514.16534C296.21728,505.49149 286.79281,506.2042 286.79281,506.2042C286.79281,506.2042 254.95582,595.26284 126.06115,618.41839C-2.8031999,641.58152-111.37801,569.19578-146.86195,488.10587C-146.86195,488.10587-158.43973,467.10362-158.43973,417.88102C-158.43973,368.65842-147.60499,281.76066-147.60499,281.76066L-106.31321,-112.05807L-83.862786,-136.67695L-83.157657,-142.47721C-83.157657,-142.47721-104.86504,-159.11979-96.896313,-213.41477L-116.44281,-214.86294z" id="p1" style="fill:#000;fill-opacity:1;fill-rule:nonzero;stroke:none"/>
            <path d="M-187.4107,-342.27912L-138.89323,-348.79209C-138.89323,-348.79209-125.8597,-295.24773-104.86504,-267.7325C-83.862786,-240.21728-61.442695,-246.73025-47.673711,-291.60077C-33.927473,-336.5016-34.640185,-369.08163-34.640185,-369.08163L40.64947,-382.82028L48.610611,-414.69518L-206.9572,-370.5298L-187.4107,-342.27912z" id="p2" style="fill:#e0e1e6;fill-opacity:1;fill-rule:nonzero;stroke:none"/>
            <path d="M-183.05103,-335.75856L-108.50442,-223.56712L5.1655239,-228.63193L38.481006,-376.30731L-28.127212,-363.27379C-28.127212,-363.27379-2.06016,-310.44213-27.414501,-248.89114L-85.318538,-243.82633C-85.318538,-243.82633-131.66755,-250.34689-143.24532,-343.72729L-183.05103,-335.75856z" id="p3" style="fill:#e0e1e6;fill-opacity:1;fill-rule:nonzero;stroke:none"/>
            <path d="M-63.603576,-251.79506C-63.603576,-251.79506-35.383224,-276.40636-29.575382,-352.43905C-29.575382,-352.43905-12.189765,-311.14726-30.318422,-253.25081L-63.603576,-251.79506z" id="p4" style="fill:#e0e1e6;fill-opacity:1;fill-rule:nonzero;stroke:none"/>
            <path d="M10.965784,-230.08768L54.388126,-413.23943L161.54509,-388.62813L89.872071,-232.96127L62.356849,-231.53585L91.320241,-295.95286L60.195968,-298.85678L31.968034,-230.08768L10.965784,-230.08768z" id="p5" style="fill:#fff;fill-opacity:1;fill-rule:nonzero;stroke:none"/>
            <path d="M38.481006,-230.80039L56.579335,-230.80039L83.351517,-291.60077L63.805019,-293.79197L38.481006,-230.80039z" id="p6" style="fill:#bdc0c9;fill-opacity:1;fill-rule:nonzero;stroke:none"/>
            <path d="M-83.862786,-159.86283C-83.862786,-159.86283-83.862786,-204.02062-67.220209,-217.76686L-89.670629,-217.05415C-89.670629,-217.05415-92.57455,-172.15331-83.862786,-159.86283z" id="p7" style="fill:#e0e1e6;fill-opacity:1;fill-rule:nonzero;stroke:none"/>
            <path d="M-76.637102,-114.25686C-76.637102,-114.25686-82.444945,-201.12429-52.025802,-217.76686L-14.380974,-220.67078C-14.380974,-220.67078 15.295129,-219.21503 9.5176146,-117.12287L-76.637102,-114.25686z" id="p8" style="fill:#e0e1e6;fill-opacity:1;fill-rule:nonzero;stroke:none"/>
            <path d="M16.030587,-117.86591L47.162442,-118.57862C47.162442,-118.57862 51.514533,-211.24631 20.39026,-222.11895L-4.9640812,-219.92774C-4.9640812,-219.92774 20.39026,-212.70206 16.030587,-117.86591z" id="p9" style="fill:#fff;fill-opacity:1;fill-rule:nonzero;stroke:none"/>
            <path d="M52.227244,-151.8941C52.227244,-151.8941 56.579335,-194.60373 34.128916,-222.11895L75.390376,-223.56712C75.390376,-223.56712 70.325573,-171.4406 91.320241,-149.70289L52.227244,-151.8941z" id="p10" style="fill:#e0e1e6;fill-opacity:1;fill-rule:nonzero;stroke:none"/>
            <path d="M81.903348,-225.73559L97.840795,-225.73559L120.99634,-274.95819L120.99634,-188.80347C120.99634,-188.80347 121.73938,-159.86283 108.70586,-150.44593C95.672332,-141.02904 77.581585,-169.24939 81.903348,-225.73559z" id="p11" style="fill:#fff;fill-opacity:1;fill-rule:nonzero;stroke:none"/>
            <path d="M129.70811,-176.5054L130.41324,-290.88805L260.73334,-306.08246C260.73334,-306.08246 249.86069,-287.279 252.0519,-161.28825C252.0519,-161.28825 176.02679,-179.40932 129.70811,-176.5054z" id="p12" style="fill:#e0e1e6;fill-opacity:1;fill-rule:nonzero;stroke:none"/>
            <path d="M259.27758,-159.11979L288.96127,-151.15864C288.96127,-151.15864 294.76153,-262.6677 284.63193,-297.40861C284.63193,-297.40861 273.76686,-316.21207 265.08543,-295.24773C256.38125,-274.24548 256.38125,-168.54426 259.27758,-159.11979z" id="p13" style="fill:#fff;fill-opacity:1;fill-rule:nonzero;stroke:none"/>
            <path d="M299.82633,-197.50765L299.82633,-222.83167L317.21195,-264.82858L334.59757,-262.6677L308.50777,-196.76461L299.82633,-197.50765z" id="p14" style="fill:#bdc0c9;fill-opacity:1;fill-rule:nonzero;stroke:none"/>
            <path d="M315.76378,-196.76461L343.98413,-268.43763L315.02074,-271.34156L299.82633,-237.31336C299.82633,-237.31336 300.53904,-280.02299 294.76153,-297.40861L308.50777,-356.76081L399.72729,-334.34072L336.75845,-195.31644L315.76378,-196.76461z" id="p15" style="fill:#ebeeee;fill-opacity:1;fill-rule:nonzero;stroke:none"/>
            <path d="M132.5817,-299.56949L260.02062,-313.33847C260.02062,-313.33847 285.34464,-319.85903 290.40944,-306.8255L301.28208,-356.0481L147.79885,-331.4368L132.5817,-299.56949z" id="p16" style="fill:#fff;fill-opacity:1;fill-rule:nonzero;stroke:none"/>
            <path d="M54.388126,-124.37888L54.388126,-142.47721L89.15936,-141.02904C89.15936,-141.02904 119.54817,-135.2212 127.5169,-164.92763C127.5169,-164.92763 181.83463,-167.80122 301.98721,-138.12512L341.08779,-86.741635C341.08779,-86.741635 191.96424,-122.93071 54.388126,-124.37888z" id="p17" style="fill:#e0e1e6;fill-opacity:1;fill-rule:nonzero;stroke:none"/>
            <path d="M58.740216,-44.001677L55.131165,-117.12287C55.131165,-117.12287 136.22108,-118.57862 187.60456,-109.16173L178.93071,-32.423902C178.93071,-32.423902 60.901098,-41.840796 58.740216,-44.001677z" id="p18" style="fill:#fff;fill-opacity:1;fill-rule:nonzero;stroke:none"/>
            <path d="M183.2828,-31.71119L191.25152,-108.44901C191.25152,-108.44901 284.63193,-98.319409 347.60076,-80.933792L341.82325,-12.869822C341.82325,-12.869822 203.54201,-30.968151 183.2828,-31.71119z" id="p19" style="fill:#fff;fill-opacity:1;fill-rule:nonzero;stroke:none"/>
            <path d="M16.030587,-110.6099L47.162442,-111.35294L53.675414,82.67146L55.131165,86.318422L21.808101,87.736263L16.030587,-110.6099z" id="p20" style="fill:#fff;fill-opacity:1;fill-rule:nonzero;stroke:none"/>
            <path d="M-9.316172,-109.16173L10.230326,-110.6099L16.743298,88.479303L42.097639,126.12413L41.354599,244.11583C41.354599,244.11583 49.323323,351.2728-34.640185,346.95104C-118.63402,342.59136-105.60808,252.08456-105.60808,247.76279C-105.60808,243.40312-105.60808,121.76446-105.60808,121.76446L-66.507497,89.192015L-74.476221,-106.99326L-56.347564,-107.7363L-48.416751,101.51283L-70.836842,125.41142L-71.5723,226.0175C-71.5723,226.0175-86.053996,258.59753-61.442695,286.11275C-36.831394,313.62797-2.06016,303.49837 9.5176146,267.30929C21.095389,231.08231-2.06016,210.8231-2.06016,210.8231L-9.316172,-109.16173z" id="p21" style="fill:#e0e1e6;fill-opacity:1;fill-rule:nonzero;stroke:none"/>
            <path d="M-65.77204,211.53581L-65.77204,129.02047L-7.8680024,126.82926L-6.4122508,204.31012C-6.4122508,204.31012-36.831394,175.34673-65.77204,211.53581z" id="p22" style="fill:#454b97;fill-opacity:1;fill-rule:nonzero;stroke:none"/>
            <path d="M-61.442695,122.5075L-44.76979,105.12188L-7.8680024,105.86492L-7.8680024,121.76446L-61.442695,122.5075z" id="p23" style="fill:#454b97;fill-opacity:1;fill-rule:nonzero;stroke:none"/>
            <path d="M-41.896197,100.05708L-8.5807141,100.76979L-13.645517,-109.16173L-50.577632,-107.7363L-41.896197,100.05708z" id="p24" style="fill:#454b97;fill-opacity:1;fill-rule:nonzero;stroke:none"/>
            <path d="M-93.287262,-109.16173L-83.862786,-109.16173L-81.701905,-49.809519L-100.54327,-49.809519L-93.287262,-109.16173z" id="p25" style="fill:#fff;fill-opacity:1;fill-rule:nonzero;stroke:none"/>
            <path d="M-101.99144,-45.449846L-82.444945,-46.192886L-74.476221,84.86267L-111.37801,117.44269L-113.56922,264.40537C-113.56922,264.40537-117.89856,299.88932-96.896313,323.75758C-96.896313,323.75758-130.92451,316.53189-139.63627,309.27588L-101.99144,-45.449846z" id="p26" style="fill:#fff;fill-opacity:1;fill-rule:nonzero;stroke:none"/>
            <path d="M-71.5723,248.11157C-71.5723,275.51306-54.072952,297.69811-32.479303,297.69811C-10.885654,297.69811 6.6136934,275.51306 6.6136934,248.11157C6.6136934,220.71766-10.885654,198.50228-32.479303,198.50228C-54.072952,198.50228-71.5723,220.71766-71.5723,248.11157z" id="p27" style="fill:#7a828d;fill-opacity:1;fill-rule:nonzero;stroke:none"/>
            <path d="M47.162442,126.82926L82.646388,126.12413L59.483256,92.088354L23.99931,93.544105L47.162442,126.82926z" id="p28" style="fill:#fff;fill-opacity:1;fill-rule:nonzero;stroke:none"/>
            <path d="M48.610611,131.18893L82.646388,130.47622L82.646388,273.82226C82.646388,273.82226 83.351517,326.6615 45.00156,341.85591L2.2616027,346.208C2.2616027,346.208 37.745548,331.01359 44.258521,281.76066L48.610611,131.18893z" id="p29" style="fill:#fff;fill-opacity:1;fill-rule:nonzero;stroke:none"/>
            <path d="M22.551141,352.01584C22.551141,352.01584 105.80194,369.37113 137.66925,369.37113L178.93071,-28.807269L58.035087,-38.936874L61.644138,81.958749L89.872071,123.95567L89.872071,273.82226C89.872071,273.82226 94.936874,352.01584 22.551141,352.01584z" id="p30" style="fill:#fff;fill-opacity:1;fill-rule:nonzero;stroke:none"/>
            <path d="M141.28588,371.56234L159.38421,202.14924C159.38421,202.14924 247.69981,216.63094 320.82858,216.63094L304.17842,382.39707C304.17842,382.39707 210.76769,380.9489 141.28588,371.56234z" id="p31" style="fill:#fff;fill-opacity:1;fill-rule:nonzero;stroke:none"/>
            <path d="M159.38421,197.79715L223.80122,206.471L247.69981,-20.125834L182.53976,-27.3591L159.38421,197.79715z" id="p32" style="fill:#fff;fill-opacity:1;fill-rule:nonzero;stroke:none"/>
            <path d="M227.4406,205.76587C227.4406,205.76587 275.21503,211.53581 297.66545,210.8231L319.37283,-12.869822L249.86069,-20.125834L227.4406,205.76587z" id="p33" style="fill:#fff;fill-opacity:1;fill-rule:nonzero;stroke:none"/>
            <path d="M301.28208,210.11797L321.53371,210.11797L341.08779,-9.2607709L323.72492,-11.45198L301.28208,210.11797z" id="p34" style="fill:#fff;fill-opacity:1;fill-rule:nonzero;stroke:none"/>
            <path d="M302.73025,388.91763C302.73025,388.91763 144.90252,388.20491 3.7097722,353.46401C3.7097722,353.46401-50.577632,367.91538-89.670629,332.46176C-89.670629,332.46176-133.11572,321.5967-139.63627,316.53189L-143.24532,347.65617C-143.24532,347.65617-126.60274,355.62489-96.896313,362.14544L-100.54327,450.46104C-100.54327,450.46104-128.76363,443.23536-143.95803,437.42752C-143.95803,437.42752-143.24532,491.71492-91.83151,540.23239C-91.83151,540.23239-72.285012,548.90625-52.738513,554.00138C-52.738513,554.00138-35.383224,581.5166-27.414501,583.67748C-27.414501,583.67748-36.831394,567.74761-36.095936,559.06618L53.675414,580.06843L45.714272,603.93669L54.388126,605.39244C54.388126,605.39244 66.70894,595.96797 76.838545,584.39019C76.838545,584.39019 143.44676,595.26284 171.6747,593.80708C171.6747,593.80708 192.66937,588.00682 199.92538,582.94202C199.92538,582.94202 108.70586,574.26059 89.15936,567.0349C89.15936,567.0349 129.70811,523.58223 147.79885,458.42977C147.79885,458.42977 261.44605,472.16842 289.69673,468.55937C289.69673,468.55937 303.44297,415.72014 302.73025,388.91763z" id="p35" style="fill:#bac1d1;fill-opacity:1;fill-rule:nonzero;stroke:none"/>
            <path d="M-78.092854,457.71705C-78.092854,457.71705-80.989193,394.71789-73.028052,368.65842C-73.028052,368.65842 14.582417,388.20491 39.936758,392.55701C39.936758,392.55701 26.903232,461.33369 26.903232,477.97626C26.903232,477.97626-37.544106,470.75058-78.092854,457.71705z" id="p36" style="fill:#000;fill-opacity:1;fill-rule:nonzero;stroke:none"/>
            <path d="M-73.028052,451.90921C-73.028052,451.90921-73.028052,392.55701-68.668379,377.33227C-68.668379,377.33227 13.134248,396.17364 34.128916,399.07756C34.128916,399.07756 24.712022,430.91454 21.095389,471.45571C21.095389,471.45571-52.025802,458.42977-73.028052,451.90921z" id="p37" style="fill:#454b97;fill-opacity:1;fill-rule:nonzero;stroke:none"/>
            <path d="M-143.95803,429.45879C-143.95803,429.45879-128.76363,438.14023-106.31321,443.23536C-106.31321,443.23536-106.31321,399.78269-102.70415,367.91538C-102.70415,367.91538-133.11572,359.24152-142.50986,354.17672C-142.50986,354.17672-146.14924,405.59053-143.95803,429.45879z" id="p38" style="fill:#454b97;fill-opacity:1;fill-rule:nonzero;stroke:none"/>
            <path d="M58.740216,489.55404C58.740216,489.55404 80.455178,442.49232 82.646388,401.23844C82.646388,401.23844 124.64331,407.75141 137.66925,409.91229C137.66925,409.91229 123.90027,472.91146 110.86674,498.97093C110.86674,498.97093 69.612861,496.07459 58.740216,489.55404z" id="p39" style="fill:#000;fill-opacity:1;fill-rule:nonzero;stroke:none"/>
            <path d="M66.70894,487.39316L80.455178,448.30016C80.455178,448.30016 100.73713,453.36496 118.83546,455.52584C118.83546,455.52584 114.48337,472.91146 107.25769,492.45796C107.25769,492.45796 88.41632,493.17067 66.70894,487.39316z" id="p40" style="fill:#94c6eb;fill-opacity:1;fill-rule:nonzero;stroke:none"/>
            <path d="M80.455178,443.94807L88.41632,408.46412C88.41632,408.46412 115.21883,414.9771 130.41324,414.27197C130.41324,414.27197 126.80419,436.7148 120.99634,449.74833C120.99634,449.74833 102.19289,449.74833 80.455178,443.94807z" id="p41" style="fill:#94c6eb;fill-opacity:1;fill-rule:nonzero;stroke:none"/>
            <path d="M207.8941,409.91229C207.8941,409.91229 237.5702,407.00837 259.27758,412.1035C281.02287,417.16831 283.18376,423.68886 286.08768,433.07543C288.96127,442.49232 283.18376,462.78186 262.89422,459.87794C262.89422,459.87794 226.70514,456.26888 214.41466,455.52584C202.09384,454.81313 188.43859,446.84441 189.79577,429.45879C191.25152,410.65533 207.8941,409.91229 207.8941,409.91229z" id="p42" style="fill:#000;fill-opacity:1;fill-rule:nonzero;stroke:none"/>
            <path d="M254.22036,452.62192C254.22036,452.62192 242.63501,430.91454 257.82941,419.32919C257.82941,419.32919 233.21811,412.1035 208.60681,415.72014C208.60681,415.72014 189.79577,420.0419 197.73417,441.04415C197.73417,441.04415 199.92538,449.01287 218.73642,450.46104C237.5702,451.90921 239.02596,449.74833 254.22036,452.62192z" id="p43" style="fill:#7a828d;fill-opacity:1;fill-rule:nonzero;stroke:none"/>
            <path d="M255.66853,438.52691C255.66853,447.49646 261.17309,454.81313 267.98935,454.81313C274.76769,454.81313 280.27983,447.49646 280.27983,438.52691C280.27983,429.51945 274.76769,422.23311 267.98935,422.23311C261.17309,422.23311 255.66853,429.51945 255.66853,438.52691z" id="p44" style="fill:#de192b;fill-opacity:1;fill-rule:nonzero;stroke:none"/>
            <path d="M289.69673,499.68364C289.69673,499.68364 305.63418,456.97401 306.34689,443.94807C306.34689,443.94807 319.37283,467.10362 327.34155,470.00754C327.34155,470.00754 307.79506,485.20195 308.50777,506.2042C308.50777,506.2042 297.66545,496.81005 289.69673,499.68364z" id="p45" style="fill:#7a828d;fill-opacity:1;fill-rule:nonzero;stroke:none"/>
            <path d="M315.76378,509.84358C314.1943,511.50404 310.69898,489.55404 333.1494,474.35963C333.1494,474.35963 338.2142,485.94499 315.76378,509.84358z" id="p46" style="fill:#576370;fill-opacity:1;fill-rule:nonzero;stroke:none"/>
            <path d="M97.840795,564.84369C97.840795,564.84369 107.96282,567.0349 110.86674,567.0349C110.86674,567.0349 140.54284,526.48615 160.83238,470.00754C160.83238,470.00754 244.79589,479.42443 286.79281,478.68898L287.53585,473.62417C287.53585,473.62417 176.02679,466.39849 152.15853,462.78186C152.15853,462.78186 133.31716,522.13406 97.840795,564.84369z" id="p47" style="fill:#3b3e67;fill-opacity:1;fill-rule:nonzero;stroke:none"/>
            <path d="M115.21883,568.45274C115.21883,568.45274 149.25461,514.90838 164.44901,472.91146C164.44901,472.91146 275.21503,483.04107 286.79281,480.88019C286.79281,480.88019 276.6632,533.71184 206.44593,579.32539C206.44593,579.32539 132.5817,572.09971 115.21883,568.45274z" id="p48" style="fill:#454b97;fill-opacity:1;fill-rule:nonzero;stroke:none"/>
            <path d="M155.17618,554.85815C165.27546,573.60853 194.8075,577.36922 221.193,563.18323C247.58608,549.02756 260.82432,522.33878 250.72504,503.56565C240.64851,484.78494 211.09372,481.05457 184.70822,495.21024C158.34547,509.36591 145.10723,536.08502 155.17618,554.85815z" id="p49" style="fill:#000;fill-opacity:1;fill-rule:nonzero;stroke:none"/>
            <path d="M217.28067,520.73897C217.28067,523.52916 220.54094,525.7507 224.53668,525.7507C228.54,525.7507 231.76994,523.52916 231.76994,520.73897C231.76994,517.98669 228.54,515.73482 224.53668,515.73482C220.54094,515.73482 217.28067,517.98669 217.28067,520.73897z" id="p50" style="fill:#ebeeee;fill-opacity:1;fill-rule:nonzero;stroke:none"/>
            <path d="M178.96104,558.97519C181.15225,565.91276 192.22961,568.60438 203.74673,564.96501C215.27143,561.34837 222.82314,552.78825 220.63193,545.85827C218.44072,538.92828 207.36336,536.2594 195.83866,539.87604C184.32154,543.51542 176.76983,552.07554 178.96104,558.97519z" id="p51" style="fill:#ebeeee;fill-opacity:1;fill-rule:nonzero;stroke:none"/>
            <path d="M-47.673711,574.26059C-47.673711,574.26059-54.929723,563.38794-55.642435,558.33072C-55.642435,558.33072-74.476221,556.16226-79.541024,552.55321C-79.541024,552.55321-54.186683,571.35667-47.673711,574.26059z" id="p52" style="fill:#454b97;fill-opacity:1;fill-rule:nonzero;stroke:none"/>
            <path d="M-18.710319,588.00682C-18.710319,588.00682-26.671461,572.09971-28.127212,567.0349C-28.127212,567.0349 28.351401,583.67748 47.162442,584.39019L39.193718,603.22398C39.193718,603.22398 7.3567333,602.48852-18.710319,588.00682z" id="p53" style="fill:#454b97;fill-opacity:1;fill-rule:nonzero;stroke:none"/>
            <path d="M63.805019,605.39244L79.742466,590.19803C79.742466,590.19803 139.83771,598.87189 155.02454,596.71101C155.02454,596.71101 101.44985,613.35358 63.805019,605.39244z" id="p54" style="fill:#454b97;fill-opacity:1;fill-rule:nonzero;stroke:none"/>
            </g>
          </g>
        </g>

        <g id="highscoretable" transform="translate(40,40)">
          <rect width="520" height="480" style="fill:white;stroke:red;stroke-width:2"/>
          <text x="260" y="50" style="fill:red;font-size:50px;font-weight:bold;text-anchor:middle"> Game Over </text>
          <text x="260" y="90" style="fill:red;font-size:30px;font-weight:bold;text-anchor:middle"> High Score Table </text>
          <text id="highscoretext" y="100" style="font-size: 20px;font-weight:bold"/>
          <g onclick="top.startGameAgain()">
            <rect class="button" x="160" y="420" width="200" height="40" rx="10" ry="10" style="fill:white;stroke:red;stroke-width:2"/>
            <text x="260" y="450" style="fill:red;font-size:30px;font-weight:bold;text-anchor:middle">Start Again</text>
          </g>
        </g>
      </g>
    </g>
  </g>
</svg>
